<?xml version="1.0" encoding="utf-8"?>
<!-- Generator: Adobe Illustrator 16.0.0, SVG Export Plug-In . SVG Version: 6.00 Build 0)  -->
<!DOCTYPE svg PUBLIC "-//W3C//DTD SVG 1.1//EN" "http://www.w3.org/Graphics/SVG/1.1/DTD/svg11.dtd">
<svg version="1.1" xmlns="http://www.w3.org/2000/svg" xmlns:xlink="http://www.w3.org/1999/xlink" x="0px" y="0px" width="128px"
	 height="128px" viewBox="0 0 128 128" enable-background="new 0 0 128 128" xml:space="preserve">
<g id="Layer_1" display="none">
	<g display="inline">
		<g>
			<path d="M27.161,82.227c10.617,6.139,21.876,10.681,34.159,11.901c7.598,0.755,15.968,1.516,23.361-0.754
				c9.238-2.835,5.664-13.172,5.025-20.336c-0.682-7.64-1.587-15.259-2.295-22.897c-0.608-6.552-0.426-13.507-1.712-19.951
				c-0.163-0.818-1.096-1.231-1.845-1.047c-11.971,2.929-24.29,1.006-36.417,2.515c-1.183,0.147-1.796,1.147-1.295,2.257
				c2.12,4.698,5.333,8.724,7.876,13.185c0.958,1.68,3.55,0.169,2.591-1.515c-2.543-4.46-5.757-8.486-7.876-13.185
				c-0.432,0.752-0.864,1.505-1.295,2.257c12.398-1.543,24.972,0.373,37.214-2.623c-0.614-0.349-1.229-0.698-1.845-1.047
				c1.104,5.53,0.924,11.568,1.426,17.191c0.517,5.79,1.115,11.569,1.729,17.349c0.497,4.686,0.756,9.411,1.465,14.069
				c0.408,2.678,1.406,6.735-0.481,9.077c-1.162,1.441-3.321,1.927-5.016,2.349c-6.601,1.641-13.911,0.571-20.609,0.104
				c-11.626-0.812-22.689-5.735-32.646-11.491C26.997,78.666,25.487,81.259,27.161,82.227L27.161,82.227z"/>
		</g>
	</g>
</g>
<g id="Layer_2" display="none">
	<path display="inline" fill="none" stroke="#000000" stroke-width="3" stroke-linecap="square" stroke-miterlimit="10" d="
		M100.863,10.555"/>
	<path display="inline" fill="none" stroke="#000000" stroke-width="3" stroke-linecap="square" stroke-miterlimit="10" d="
		M12.623,97.586c4.799,10.799,105.315,36.229,96.617-1.26c-12.138-52.312,1.729-91.76-16.775-89.025
		c-34.491,5.099-57.173,2.3-57.173,2.3L48.5,30.418L48.466,11.24"/>
</g>
<g id="Layer_3">
	<path fill="none" stroke="#000000" stroke-width="12" stroke-linecap="square" stroke-miterlimit="10" d="M25.5,87.25
		C25.5,129.768,88,128,88,85.747c0-41.573,0-74.017,0-74.017l-45.939-0.072L53.538,30.68l-1.132-18.434"/>
</g>
</svg>
